<mxfile host="app.diagrams.net" modified="2022-12-28T09:39:24.725Z" agent="5.0 (Macintosh; Intel Mac OS X 10_15_7) AppleWebKit/537.36 (KHTML, like Gecko) Chrome/108.0.0.0 Safari/537.36" etag="mV0RRCXOlPrr3bcYiv4O" version="20.7.4" type="github">
  <diagram id="nmKlhyjXEk2Ih6iH253c" name="第 1 页">
    <mxGraphModel dx="976" dy="660" grid="1" gridSize="10" guides="1" tooltips="1" connect="1" arrows="1" fold="1" page="1" pageScale="1" pageWidth="827" pageHeight="1169" math="0" shadow="0">
      <root>
        <mxCell id="0" />
        <mxCell id="1" parent="0" />
        <mxCell id="GQdBluO_648FcDcBQcId-1" value="hashicorp vault&lt;br&gt;配置管理中心" style="rounded=0;whiteSpace=wrap;html=1;" parent="1" vertex="1">
          <mxGeometry x="120" y="310" width="120" height="60" as="geometry" />
        </mxCell>
        <mxCell id="GQdBluO_648FcDcBQcId-2" value="hashicorp consul&lt;br&gt;服务注册中心" style="rounded=0;whiteSpace=wrap;html=1;" parent="1" vertex="1">
          <mxGeometry x="120" y="230" width="120" height="60" as="geometry" />
        </mxCell>
        <mxCell id="GQdBluO_648FcDcBQcId-3" value="nacos" style="rounded=0;whiteSpace=wrap;html=1;" parent="1" vertex="1">
          <mxGeometry x="120" y="440" width="120" height="60" as="geometry" />
        </mxCell>
        <mxCell id="GQdBluO_648FcDcBQcId-6" value="aws cloud map服务注册中心" style="rounded=0;whiteSpace=wrap;html=1;" parent="1" vertex="1">
          <mxGeometry x="120" y="40" width="120" height="60" as="geometry" />
        </mxCell>
        <mxCell id="GQdBluO_648FcDcBQcId-7" value="aws原生服务, 不需要部署&lt;br&gt;&lt;br&gt;未与springcloud集成" style="text;html=1;strokeColor=none;fillColor=none;align=left;verticalAlign=middle;whiteSpace=wrap;rounded=0;" parent="1" vertex="1">
          <mxGeometry x="290" y="60" width="160" height="85" as="geometry" />
        </mxCell>
        <mxCell id="GQdBluO_648FcDcBQcId-8" value="&lt;div style=&quot;&quot;&gt;需要部署server和client组成高可用服务&lt;/div&gt;&lt;div style=&quot;&quot;&gt;&lt;br&gt;&lt;/div&gt;&lt;div style=&quot;&quot;&gt;go语言实现&lt;/div&gt;" style="text;html=1;strokeColor=none;fillColor=none;align=left;verticalAlign=middle;whiteSpace=wrap;rounded=0;" parent="1" vertex="1">
          <mxGeometry x="280" y="230" width="230" height="132.5" as="geometry" />
        </mxCell>
        <mxCell id="GQdBluO_648FcDcBQcId-9" value="" style="shape=curlyBracket;whiteSpace=wrap;html=1;rounded=1;flipH=1;" parent="1" vertex="1">
          <mxGeometry x="250" y="40" width="20" height="130" as="geometry" />
        </mxCell>
        <mxCell id="GQdBluO_648FcDcBQcId-10" value="" style="shape=curlyBracket;whiteSpace=wrap;html=1;rounded=1;flipH=1;" parent="1" vertex="1">
          <mxGeometry x="250" y="230" width="20" height="140" as="geometry" />
        </mxCell>
        <mxCell id="GQdBluO_648FcDcBQcId-12" value="AWS Parameter Store配置中心" style="rounded=0;whiteSpace=wrap;html=1;" parent="1" vertex="1">
          <mxGeometry x="120" y="110" width="120" height="60" as="geometry" />
        </mxCell>
        <mxCell id="kYNvWG7T2KGYoYmtbhhu-1" value="注册中心+配置中心&lt;br&gt;&lt;br&gt;需要部署server端, 高可用至少三节点&lt;br&gt;&lt;br&gt;java语言" style="text;html=1;strokeColor=none;fillColor=none;align=left;verticalAlign=middle;whiteSpace=wrap;rounded=0;" parent="1" vertex="1">
          <mxGeometry x="280" y="420" width="220" height="105" as="geometry" />
        </mxCell>
      </root>
    </mxGraphModel>
  </diagram>
</mxfile>
